<?xml version="1.0" encoding="utf-8"?>
<!-- Generator: Adobe Illustrator 28.0.0, SVG Export Plug-In . SVG Version: 6.00 Build 0)  -->
<svg version="1.1" id="Layer_1" xmlns="http://www.w3.org/2000/svg" xmlns:xlink="http://www.w3.org/1999/xlink" x="0px" y="0px"
	 viewBox="0 0 560 560" style="enable-background:new 0 0 560 560;" xml:space="preserve">
<path d="M141.2,248.5c0,6.4-2.7,12.3-11,12.3h-6.9v-23.7h6.9C138,237.1,141.2,242.1,141.2,248.5z M261.3,382.8h3.7l-1.8-4.6
	L261.3,382.8z M155.8,314.3h11.4l-5.5-14.2L155.8,314.3z M180.9,239.4l-5.9,14.2h11.4L180.9,239.4z M233,382.8h3.7l-1.8-4.6
	L233,382.8z M505.6,280c0,124.6-101,225.6-225.6,225.6c-124.6,0-225.6-101-225.6-225.6c0-124.6,101-225.6,225.6-225.6
	C404.6,54.4,505.6,155.4,505.6,280z M367.7,271.3h12.8v-16.9h16v16.9h12.3v-44.8h-12.3v16.9h-16v-16.9h-12.8V271.3z M315.6,248.9
	c0,11.4,6.4,23.3,24.2,23.3c8.7,0,16.4-3.2,19.2-8.7v-19.6h-21.9v10h11.4v5.9c-2.7,1.8-6.4,2.3-8.7,2.3c-8.7,0-11.9-6.9-11.9-12.8
	c0-9.1,4.6-13.2,11.9-13.2c2.7,0,6.9,0.9,10,4.1l7.3-7.8c-5.5-5.9-11-7.3-17.4-7.3C323.4,225.2,315.6,237.1,315.6,248.9z
	 M315.2,302.8c0,1.8,0,3.7,0.5,9.1l-19.2-25.1h-10.5v44.8h12.8v-14.2v-9.6l18.7,24.2H328v-44.8h-12.8V302.8z M295.5,256.7h11.9
	l0.5-30.1h-12.3V256.7z M301.5,271.8c9.1,0,9.1-12.3,0-12.3S292.3,271.8,301.5,271.8z M254.9,271.3h33.8v-10.5h-21.5V227v-0.5h-12.3
	V271.3z M202.4,227.5l16.4,26v17.8h12.8v-17.8l17.8-26.5v-0.5h-14.2l-9.6,15.5l-9.1-15.1h-14.2V227.5z M154.4,271.3h13.2l2.7-7.3
	h20.1l3.2,7.3h13.7l-20.1-44.8h-12.8L154.4,271.3z M129.8,271.8c16,0,23.3-10.5,23.3-22.8s-7.8-21.9-23.3-21.9h-19.2v44.8H129.8z
	 M188.7,332.1l-20.1-44.8h-12.8l-20.1,44.8h13.2l2.7-7.3h20.1l3.2,7.3H188.7z M214.2,332.5c8.7,0,16.4-3.2,19.2-8.7v-19.6h-21.9v10
	h11.4v5.9c-2.7,1.8-6.4,2.3-8.7,2.3c-8.7,0-11.9-6.9-11.9-12.8c0-9.1,4.6-13.2,11.9-13.2c2.7,0,6.9,0.9,10,4.1l7.3-7.8
	c-5.5-5.9-11-7.3-17.4-7.3c-16.4,0-24.2,11.9-24.2,23.7C190,320.6,196.4,332.5,214.2,332.5z M225.2,375.9h-2.7l-3.2,4.1l-3.2-4.1
	c-0.9,0-1.8,0-2.7,0v11h2.3v-7.8l3.2,4.6h0.5l3.7-4.6v7.8h2.3V375.9z M240.7,386.9l-5-11H233l-5,11h2.7l0.9-1.8h5.9l0.5,1.8H240.7z
	 M241.6,332.1h35.6h0.5v-11h-23.3v-6.9h21v-10H254v-6.4h22.4v-10.5h-34.7V332.1z M254,375.9h-2.3v3.7v3.7l-5.9-6.9h-2.3v11h2.7v-3.7
	V380l5.5,6.9h2.3V375.9z M269,386.9l-5-11h-2.7l-5,11h2.7l0.9-1.8h5.9l0.5,1.8H269z M281.4,380h-5v2.3h2.7v1.8
	c-0.9,0.9-1.4,0.9-2.3,0.9c-2.7,0-3.7-2.3-3.7-3.7c0-2.3,1.4-3.7,3.7-3.7c0.9,0,1.8,0.5,2.7,0.9l1.4-1.4c-1.4-1.4-2.7-1.8-4.1-1.8
	c-4.1,0-5.9,2.7-5.9,5.9c0,2.7,1.8,5.9,5.9,5.9c2.3,0,3.7-0.9,4.6-2.3V380z M293.7,375.9H285c0,3.7,0,7.3,0,11h8.7v-2.3h-5.9v-1.8
	h5.5v-2.3h-5.5v-2.3h5.9V375.9z M309.2,375.9h-2.7l-3.2,4.1l-3.2-4.1c-0.9,0-1.8,0-2.7,0v11h2.3v-7.8l3.2,4.6h0.5l3.7-4.6v7.8h2.3
	V375.9z M321.6,386.9v-2.3h-5.9v-1.8h5.5v-2.3h-5.5v-2.3h5.9v-2.3h-8.2c0,3.7,0,7.3,0,11H321.6z M335.7,375.9h-2.3v3.7v3.7l-5.5-6.9
	h-2.3v11h2.3v-3.7V380l5.5,6.9h2.3V375.9z M348,375.9c-3.2,0-5.9,0-9.1,0v2.3h3.2h0.5v9.1h2.3v-9.1h3.2V375.9z M378.6,326.1
	l-7.3-8.7c-3.2,3.2-7.3,4.6-10.5,4.6c-8.7,0-11.9-6.4-11.9-12.3c0-5.9,3.2-12.8,11.9-12.8c3.2,0,6.4,0.9,9.6,4.1l7.8-7.8
	c-5-5-11-7.3-17.4-7.3c-16.4,0-24.2,12.3-24.2,23.7c0,12.3,6.9,23.3,24.2,23.3C367.7,333,373.6,331.1,378.6,326.1z M427.1,287.3
	h-14.2l-9.6,15.5l-9.1-15.5h-14.6v0.5l16.9,26.5v17.8h12.8v-17.8l17.8-26.5V287.3z M454.9,237.1v-10.5h-38.8v10.5h12.8v34.3h12.8
	v-34.3H454.9z"/>
</svg>
