<?xml version="1.0" encoding="utf-8"?>
<!-- Generator: Adobe Illustrator 28.0.0, SVG Export Plug-In . SVG Version: 6.00 Build 0)  -->
<svg version="1.1" id="Layer_1" xmlns="http://www.w3.org/2000/svg" xmlns:xlink="http://www.w3.org/1999/xlink" x="0px" y="0px"
	 viewBox="0 0 560 560" style="enable-background:new 0 0 560 560;" xml:space="preserve">
<path d="M242.1,383h-2.6v2h2.6c0.8,0,1.2-0.4,1.2-1S242.9,383,242.1,383z"/>
<path d="M255.2,378.6c-1.8,0-3,1.4-3,3.2s1.2,3.2,3,3.2c1.8,0,3-1.4,3-3.2C258.4,379.8,257.2,378.6,255.2,378.6z"/>
<path d="M270.4,378.6c-1.8,0-3,1.4-3,3.2s1.2,3.2,3,3.2c1.8,0,3-1.4,3-3.2C273.4,379.8,272.2,378.6,270.4,378.6z"/>
<path d="M243.1,379.6c0-0.4-0.4-0.8-1-0.8h-2.6v1.6h2.6C242.7,380.4,243.1,380,243.1,379.6z"/>
<path d="M280,54.6c-124.6,0-225.6,101-225.6,225.6s101,225.6,225.6,225.6s225.6-101,225.6-225.6S404.6,54.6,280,54.6z M319.9,257.6
	l-0.2,30h-12l-0.2-30H319.9z M313.5,290c9,0,9.2,12.4,0,12.4C304.8,302.6,304.8,290,313.5,290z M135,268h-13v34.1h-12.6V268h-13
	v-10.4H135V268z M183.4,302.2H171v-17h-16v17h-12.8v-44.5h12.6v17h16v-17h12.6V302.2z M230.1,302.2h-35.7v-44.5h34.7v10.6h-22.4v6.4
	h21.2v10.2h-21.2v6.8h23.4V302.2z M242.1,387.4h-5.8v-11.2h5.8c2.2,0,4,1,4,3.2c0,0.8-0.2,1.8-1.2,2.2c1,0.6,1.6,1.6,1.6,2.6
	C246.5,386.8,244.3,387.4,242.1,387.4z M255.2,387.6c-3.6,0-6.2-2.2-6.2-5.8s2.6-5.8,6.2-5.8s6.2,2.2,6.2,5.8
	C261.4,385.6,259,387.6,255.2,387.6z M270.4,387.6c-3.6,0-6.2-2.2-6.2-5.8s2.6-5.8,6.2-5.8c3.6,0,6.2,2.2,6.2,5.8
	C276.6,385.6,274,387.6,270.4,387.6z M290,387.2h-4l-3.2-3.8v3.8h-3.2V376h3.2v3.6c1-1.2,2-2.4,3-3.6l3.8,0.4l-4.6,5.2
	c1.6,1.8,3.4,3.8,5,5.4V387.2z M295.8,387.4h-3.2v-11.2h3.2V387.4z M297,302h-10.8l-18.6-24l0.2,9.8V302H255v-44.5h10.8l19,24.6
	c-0.4-5.4-0.4-7.4-0.4-9.2v-15.4H297V302z M310.2,387.6h-2.6l-4.6-6v2.4v3.6h-3.2v-11.2h2.6l4.6,6c0-1.4,0-1.8,0-2.2v-3.8h3.2V387.6
	z M324.1,385.6c-0.8,1.4-2.6,2.2-4.8,2.2c-4.4,0-6-3-6-5.8c0-3,2-6,6.2-6c1.6,0,3,0.4,4.4,1.8l-2,1.8c-0.8-0.8-1.8-1-2.6-1
	c-1.8,0-3,1-3,3.2c0,1.4,0.8,3.2,3,3.2c0.6,0,1.6-0.2,2.2-0.6V383h-2.8v-2.4h5.4V385.6z M371.4,294.8c-2.8,5.6-10.6,8.8-19.2,8.8
	c-17.6,0-24.4-11.8-24.4-23.4s7.6-23.6,24.4-23.6c6.2,0,11.6,1.2,17.6,7.2l-7.4,7c-3.2-3-7.2-3.8-10.2-3.8c-7.2,0-12,4.4-12,13
	c0,5.8,3,12.8,12,12.8c2.4,0,6-0.4,8.6-2.2v-5.8h-11.2V275h21.8V294.8z M421.6,302.2H409v-17h-16v17h-12.6v-44.5H393v17h16v-17h12.6
	V302.2z M452.3,268v34.1h-12.6V268h-13v-10.4h38.5V268H452.3z"/>
</svg>
